<svg width="162" height="30" viewBox="0 0 162 30" fill="none" xmlns="http://www.w3.org/2000/svg">
<path d="M16.426 2.46738V21.8686H12.5346V13.6133H4.2238V21.8686H0.332436V2.46738H4.2238V10.4447H12.5346V2.46738H16.426ZM27.0938 22.1188C25.6114 22.1188 24.2772 21.7945 23.0912 21.1459C21.9053 20.4788 20.9695 19.543 20.2839 18.3386C19.6168 17.1341 19.2833 15.7443 19.2833 14.1693C19.2833 12.5942 19.6261 11.2044 20.3117 9.99994C21.0159 8.79547 21.9702 7.86896 23.1746 7.2204C24.3791 6.55331 25.7226 6.21976 27.205 6.21976C28.6874 6.21976 30.0308 6.55331 31.2353 7.2204C32.4398 7.86896 33.3848 8.79547 34.0704 9.99994C34.7746 11.2044 35.1267 12.5942 35.1267 14.1693C35.1267 15.7443 34.7653 17.1341 34.0426 18.3386C33.3385 19.543 32.3749 20.4788 31.1519 21.1459C29.9475 21.7945 28.5947 22.1188 27.0938 22.1188ZM27.0938 18.7277C27.7979 18.7277 28.4558 18.5609 29.0673 18.2274C29.6973 17.8753 30.1976 17.3565 30.5682 16.6708C30.9388 15.9852 31.1241 15.1514 31.1241 14.1693C31.1241 12.7054 30.735 11.5843 29.9567 10.806C29.197 10.0092 28.2612 9.6108 27.1494 9.6108C26.0376 9.6108 25.1018 10.0092 24.342 10.806C23.6008 11.5843 23.2302 12.7054 23.2302 14.1693C23.2302 15.6331 23.5916 16.7635 24.3142 17.5603C25.0555 18.3386 25.982 18.7277 27.0938 18.7277ZM43.8738 22.1188C42.6137 22.1188 41.4834 21.8964 40.4827 21.4517C39.4821 20.9884 38.6853 20.3676 38.0923 19.5894C37.5179 18.8111 37.2029 17.9494 37.1473 17.0044H41.0664C41.1405 17.5974 41.4278 18.0884 41.9281 18.4775C42.4469 18.8667 43.0862 19.0613 43.846 19.0613C44.5872 19.0613 45.1616 18.913 45.5693 18.6165C45.9955 18.32 46.2086 17.9402 46.2086 17.4769C46.2086 16.9766 45.9492 16.606 45.4303 16.3651C44.93 16.1057 44.1239 15.8277 43.0121 15.5312C41.8632 15.2533 40.9182 14.9661 40.177 14.6696C39.4543 14.3731 38.8243 13.9191 38.2869 13.3076C37.768 12.6961 37.5086 11.8715 37.5086 10.8338C37.5086 9.98141 37.7495 9.20314 38.2313 8.49899C38.7316 7.79484 39.4358 7.23893 40.3437 6.83126C41.2703 6.4236 42.3543 6.21976 43.5958 6.21976C45.4303 6.21976 46.8942 6.68302 47.9875 7.60953C49.0808 8.51752 49.683 9.74978 49.7942 11.3063H46.0696C46.014 10.6948 45.7546 10.213 45.2913 9.86096C44.8466 9.49036 44.2444 9.30505 43.4846 9.30505C42.7805 9.30505 42.2338 9.43477 41.8447 9.69419C41.4741 9.95362 41.2888 10.315 41.2888 10.7782C41.2888 11.2971 41.5482 11.6955 42.0671 11.9734C42.5859 12.2328 43.392 12.5015 44.4853 12.7795C45.5971 13.0574 46.5143 13.3447 47.237 13.6411C47.9597 13.9376 48.5805 14.4009 49.0993 15.0309C49.6367 15.6424 49.9146 16.4577 49.9332 17.4769C49.9332 18.3664 49.683 19.1632 49.1827 19.8673C48.7009 20.5715 47.9968 21.1274 47.0702 21.535C46.1623 21.9242 45.0968 22.1188 43.8738 22.1188ZM57.0188 8.69356C57.5192 7.9894 58.2048 7.4057 59.0757 6.94244C59.9651 6.46066 60.975 6.21976 62.1054 6.21976C63.421 6.21976 64.607 6.54404 65.6632 7.1926C66.738 7.84116 67.5811 8.76768 68.1926 9.97215C68.8226 11.1581 69.1376 12.5386 69.1376 14.1137C69.1376 15.6887 68.8226 17.0878 68.1926 18.3108C67.5811 19.5152 66.738 20.451 65.6632 21.1181C64.607 21.7852 63.421 22.1188 62.1054 22.1188C60.975 22.1188 59.9744 21.8871 59.1035 21.4239C58.2511 20.9606 57.5562 20.3769 57.0188 19.6728V29.2066H53.1275V6.46992H57.0188V8.69356ZM65.1629 14.1137C65.1629 13.1872 64.9683 12.3903 64.5792 11.7233C64.2086 11.0376 63.7083 10.5188 63.0782 10.1667C62.4667 9.81464 61.7996 9.6386 61.077 9.6386C60.3728 9.6386 59.7057 9.8239 59.0757 10.1945C58.4642 10.5466 57.9639 11.0654 57.5747 11.7511C57.2041 12.4367 57.0188 13.2427 57.0188 14.1693C57.0188 15.0958 57.2041 15.9018 57.5747 16.5875C57.9639 17.2731 58.4642 17.8012 59.0757 18.1718C59.7057 18.5239 60.3728 18.6999 61.077 18.6999C61.7996 18.6999 62.4667 18.5146 63.0782 18.144C63.7083 17.7734 64.2086 17.2453 64.5792 16.5597C64.9683 15.874 65.1629 15.0587 65.1629 14.1137ZM73.9389 4.63542C73.2532 4.63542 72.6788 4.42232 72.2156 3.99613C71.7708 3.5514 71.5485 3.00476 71.5485 2.3562C71.5485 1.70764 71.7708 1.17026 72.2156 0.744061C72.6788 0.299334 73.2532 0.0769707 73.9389 0.0769707C74.6245 0.0769707 75.1897 0.299334 75.6344 0.744061C76.0976 1.17026 76.3293 1.70764 76.3293 2.3562C76.3293 3.00476 76.0976 3.5514 75.6344 3.99613C75.1897 4.42232 74.6245 4.63542 73.9389 4.63542ZM75.8568 6.46992V21.8686H71.9654V6.46992H75.8568ZM84.2321 9.6664V17.1156C84.2321 17.6344 84.3525 18.0143 84.5934 18.2552C84.8528 18.4775 85.279 18.5887 85.872 18.5887H87.6787V21.8686H85.2327C81.9529 21.8686 80.3129 20.275 80.3129 17.0878V9.6664H78.4784V6.46992H80.3129V2.66195H84.2321V6.46992H87.6787V9.6664H84.2321ZM89.4769 14.1137C89.4769 12.5571 89.7827 11.1766 90.3942 9.97215C91.0242 8.76768 91.8674 7.84116 92.9236 7.1926C93.9983 6.54404 95.1935 6.21976 96.5092 6.21976C97.6581 6.21976 98.6587 6.45139 99.5111 6.91465C100.382 7.3779 101.077 7.96161 101.596 8.66576V6.46992H105.515V21.8686H101.596V19.6172C101.095 20.3398 100.401 20.9421 99.5111 21.4239C98.6402 21.8871 97.6303 22.1188 96.4814 22.1188C95.1843 22.1188 93.9983 21.7852 92.9236 21.1181C91.8674 20.451 91.0242 19.5152 90.3942 18.3108C89.7827 17.0878 89.4769 15.6887 89.4769 14.1137ZM101.596 14.1693C101.596 13.2242 101.41 12.4181 101.04 11.7511C100.669 11.0654 100.169 10.5466 99.5389 10.1945C98.9089 9.8239 98.2325 9.6386 97.5098 9.6386C96.7871 9.6386 96.1201 9.81464 95.5086 10.1667C94.8971 10.5188 94.3967 11.0376 94.0076 11.7233C93.637 12.3903 93.4517 13.1872 93.4517 14.1137C93.4517 15.0402 93.637 15.8555 94.0076 16.5597C94.3967 17.2453 94.8971 17.7734 95.5086 18.144C96.1386 18.5146 96.8057 18.6999 97.5098 18.6999C98.2325 18.6999 98.9089 18.5239 99.5389 18.1718C100.169 17.8012 100.669 17.2823 101.04 16.6153C101.41 15.9296 101.596 15.1143 101.596 14.1693ZM113.207 1.29997V21.8686H109.316V1.29997H113.207Z" fill="white"/>
<path d="M131.577 2.3562C133.634 2.3562 135.432 2.76386 136.97 3.57919C138.508 4.39453 139.694 5.54341 140.528 7.02583C141.38 8.48972 141.806 10.1852 141.806 12.1124C141.806 14.021 141.38 15.7165 140.528 17.199C139.694 18.6814 138.499 19.8303 136.942 20.6456C135.404 21.4609 133.616 21.8686 131.577 21.8686H124.267V2.3562H131.577ZM131.272 17.7549C133.069 17.7549 134.468 17.2638 135.469 16.2817C136.469 15.2996 136.97 13.9098 136.97 12.1124C136.97 10.315 136.469 8.91592 135.469 7.91528C134.468 6.91465 133.069 6.41433 131.272 6.41433H129.02V17.7549H131.272ZM161.362 2.3562V21.8686H156.609V13.8357H149.215V21.8686H144.462V2.3562H149.215V9.99994H156.609V2.3562H161.362Z" fill="#beff3e"/>
</svg>
